<mxfile host="app.diagrams.net" modified="2022-03-21T14:58:57.245Z" agent="5.0 (Windows NT 10.0; Win64; x64) AppleWebKit/537.36 (KHTML, like Gecko) Chrome/99.0.4844.82 Safari/537.36" etag="FvgnPOhWTAbn9gFGzOFC" version="17.1.3" type="github">
  <diagram id="C5RBs43oDa-KdzZeNtuy" name="Page-1">
    <mxGraphModel dx="423" dy="1609" grid="1" gridSize="10" guides="1" tooltips="1" connect="1" arrows="1" fold="1" page="1" pageScale="1" pageWidth="827" pageHeight="1169" math="0" shadow="0">
      <root>
        <mxCell id="WIyWlLk6GJQsqaUBKTNV-0" />
        <mxCell id="WIyWlLk6GJQsqaUBKTNV-1" parent="WIyWlLk6GJQsqaUBKTNV-0" />
        <mxCell id="tD9QVT54IeONS9a-Fdes-17" value="" style="edgeStyle=orthogonalEdgeStyle;rounded=0;orthogonalLoop=1;jettySize=auto;html=1;fontSize=12;" edge="1" parent="WIyWlLk6GJQsqaUBKTNV-1">
          <mxGeometry relative="1" as="geometry">
            <mxPoint x="229" y="160" as="sourcePoint" />
            <mxPoint x="231.5" y="199" as="targetPoint" />
          </mxGeometry>
        </mxCell>
        <mxCell id="tD9QVT54IeONS9a-Fdes-18" value="AX &lt;font size=&quot;1&quot;&gt;&amp;lt;&lt;/font&gt;---&amp;nbsp; 0700h&lt;br&gt;DS&amp;nbsp;&lt;font style=&quot;font-size: 10px&quot;&gt;&amp;lt;&lt;/font&gt;&lt;font style=&quot;font-size: 12px&quot;&gt;---&lt;/font&gt;&amp;nbsp; AX&lt;br&gt;DI&amp;nbsp;&lt;font size=&quot;1&quot;&gt;&amp;lt;&lt;/font&gt;---&amp;nbsp; 0h&lt;br&gt;SI&amp;nbsp;&lt;font size=&quot;1&quot;&gt;&amp;lt;&lt;/font&gt;---&amp;nbsp; OFFSET NUMBER&lt;br&gt;CX&amp;nbsp;&lt;font size=&quot;1&quot;&gt;&amp;lt;&lt;/font&gt;---&amp;nbsp; 16" style="rounded=1;whiteSpace=wrap;html=1;fontSize=12;glass=0;strokeWidth=1;shadow=0;" vertex="1" parent="WIyWlLk6GJQsqaUBKTNV-1">
          <mxGeometry x="155" y="80" width="150" height="80" as="geometry" />
        </mxCell>
        <mxCell id="tD9QVT54IeONS9a-Fdes-19" value="Yes" style="rounded=0;html=1;jettySize=auto;orthogonalLoop=1;fontSize=11;endArrow=block;endFill=0;endSize=8;strokeWidth=1;shadow=0;labelBackgroundColor=none;edgeStyle=orthogonalEdgeStyle;entryX=0.5;entryY=0;entryDx=0;entryDy=0;" edge="1" parent="WIyWlLk6GJQsqaUBKTNV-1" source="tD9QVT54IeONS9a-Fdes-21" target="tD9QVT54IeONS9a-Fdes-33">
          <mxGeometry y="20" relative="1" as="geometry">
            <mxPoint as="offset" />
            <mxPoint x="230" y="560" as="targetPoint" />
            <Array as="points" />
          </mxGeometry>
        </mxCell>
        <mxCell id="tD9QVT54IeONS9a-Fdes-20" value="No" style="edgeStyle=orthogonalEdgeStyle;rounded=0;html=1;jettySize=auto;orthogonalLoop=1;fontSize=11;endArrow=block;endFill=0;endSize=8;strokeWidth=1;shadow=0;labelBackgroundColor=none;" edge="1" parent="WIyWlLk6GJQsqaUBKTNV-1">
          <mxGeometry y="10" relative="1" as="geometry">
            <mxPoint as="offset" />
            <mxPoint x="231" y="180" as="targetPoint" />
            <Array as="points">
              <mxPoint x="121" y="460" />
              <mxPoint x="121" y="180" />
            </Array>
            <mxPoint x="181" y="460" as="sourcePoint" />
          </mxGeometry>
        </mxCell>
        <mxCell id="tD9QVT54IeONS9a-Fdes-21" value="ZF = 0" style="rhombus;whiteSpace=wrap;html=1;shadow=0;fontFamily=Helvetica;fontSize=12;align=center;strokeWidth=1;spacing=6;spacingTop=-4;" vertex="1" parent="WIyWlLk6GJQsqaUBKTNV-1">
          <mxGeometry x="180" y="420" width="100" height="80" as="geometry" />
        </mxCell>
        <mxCell id="tD9QVT54IeONS9a-Fdes-22" style="edgeStyle=orthogonalEdgeStyle;rounded=0;orthogonalLoop=1;jettySize=auto;html=1;entryX=0.5;entryY=0;entryDx=0;entryDy=0;" edge="1" parent="WIyWlLk6GJQsqaUBKTNV-1" source="tD9QVT54IeONS9a-Fdes-23" target="tD9QVT54IeONS9a-Fdes-26">
          <mxGeometry relative="1" as="geometry" />
        </mxCell>
        <mxCell id="tD9QVT54IeONS9a-Fdes-23" value="START" style="ellipse;whiteSpace=wrap;html=1;" vertex="1" parent="WIyWlLk6GJQsqaUBKTNV-1">
          <mxGeometry x="170" y="-60" width="120" height="40" as="geometry" />
        </mxCell>
        <mxCell id="tD9QVT54IeONS9a-Fdes-24" style="edgeStyle=orthogonalEdgeStyle;rounded=0;orthogonalLoop=1;jettySize=auto;html=1;exitX=0.5;exitY=1;exitDx=0;exitDy=0;fontSize=9;" edge="1" parent="WIyWlLk6GJQsqaUBKTNV-1" source="tD9QVT54IeONS9a-Fdes-18" target="tD9QVT54IeONS9a-Fdes-18">
          <mxGeometry relative="1" as="geometry" />
        </mxCell>
        <mxCell id="tD9QVT54IeONS9a-Fdes-25" style="edgeStyle=orthogonalEdgeStyle;rounded=0;orthogonalLoop=1;jettySize=auto;html=1;entryX=0.5;entryY=0;entryDx=0;entryDy=0;fontSize=9;" edge="1" parent="WIyWlLk6GJQsqaUBKTNV-1" source="tD9QVT54IeONS9a-Fdes-26" target="tD9QVT54IeONS9a-Fdes-18">
          <mxGeometry relative="1" as="geometry" />
        </mxCell>
        <mxCell id="tD9QVT54IeONS9a-Fdes-26" value="NUMBER&amp;nbsp;&lt;font size=&quot;1&quot;&gt;&amp;lt;&lt;/font&gt;---&amp;nbsp; 5, 10, 15, 20, 25, 30, 35, 40, 50, 55, 60, 65, 70, 75, 80, 85" style="rounded=1;whiteSpace=wrap;html=1;fontSize=12;glass=0;strokeWidth=1;shadow=0;" vertex="1" parent="WIyWlLk6GJQsqaUBKTNV-1">
          <mxGeometry x="120" width="220" height="60" as="geometry" />
        </mxCell>
        <mxCell id="tD9QVT54IeONS9a-Fdes-27" value="" style="edgeStyle=orthogonalEdgeStyle;rounded=0;orthogonalLoop=1;jettySize=auto;html=1;fontSize=12;" edge="1" parent="WIyWlLk6GJQsqaUBKTNV-1" source="tD9QVT54IeONS9a-Fdes-28" target="tD9QVT54IeONS9a-Fdes-32">
          <mxGeometry relative="1" as="geometry">
            <Array as="points">
              <mxPoint x="230" y="280" />
              <mxPoint x="230" y="280" />
            </Array>
          </mxGeometry>
        </mxCell>
        <mxCell id="tD9QVT54IeONS9a-Fdes-28" value="AH&amp;nbsp;&lt;font size=&quot;1&quot;&gt;&amp;lt;&lt;/font&gt;---&amp;nbsp; [SI]&lt;br&gt;[DI]&amp;nbsp;&lt;font style=&quot;font-size: 10px&quot;&gt;&amp;lt;&lt;/font&gt;&lt;font style=&quot;font-size: 12px&quot;&gt;---&lt;/font&gt;&amp;nbsp; AH&lt;br&gt;SI&amp;nbsp;&lt;font size=&quot;1&quot;&gt;&amp;lt;&lt;/font&gt;---&amp;nbsp; SI + 1&lt;br&gt;DI&amp;nbsp;&lt;font style=&quot;font-size: 10px&quot;&gt;&amp;lt;&lt;/font&gt;---&amp;nbsp; DI + 1&lt;br&gt;CX&amp;nbsp;&lt;font style=&quot;font-size: 10px&quot;&gt;&amp;lt;&lt;/font&gt;---&amp;nbsp; CX - 1" style="rounded=1;whiteSpace=wrap;html=1;fontSize=12;glass=0;strokeWidth=1;shadow=0;" vertex="1" parent="WIyWlLk6GJQsqaUBKTNV-1">
          <mxGeometry x="155" y="199" width="155" height="81" as="geometry" />
        </mxCell>
        <mxCell id="tD9QVT54IeONS9a-Fdes-29" value="" style="edgeStyle=orthogonalEdgeStyle;rounded=0;orthogonalLoop=1;jettySize=auto;html=1;fontSize=12;entryX=0.5;entryY=0;entryDx=0;entryDy=0;" edge="1" parent="WIyWlLk6GJQsqaUBKTNV-1" source="tD9QVT54IeONS9a-Fdes-30" target="tD9QVT54IeONS9a-Fdes-21">
          <mxGeometry relative="1" as="geometry">
            <mxPoint x="230" y="420" as="targetPoint" />
          </mxGeometry>
        </mxCell>
        <mxCell id="tD9QVT54IeONS9a-Fdes-30" value="CX&amp;nbsp;&lt;font size=&quot;1&quot;&gt;&amp;lt;&lt;/font&gt;---&amp;nbsp; CX - 1" style="rounded=1;whiteSpace=wrap;html=1;fontSize=12;glass=0;strokeWidth=1;shadow=0;" vertex="1" parent="WIyWlLk6GJQsqaUBKTNV-1">
          <mxGeometry x="155" y="370" width="150" height="30" as="geometry" />
        </mxCell>
        <mxCell id="tD9QVT54IeONS9a-Fdes-31" value="" style="edgeStyle=orthogonalEdgeStyle;rounded=0;orthogonalLoop=1;jettySize=auto;html=1;fontSize=12;" edge="1" parent="WIyWlLk6GJQsqaUBKTNV-1" source="tD9QVT54IeONS9a-Fdes-32" target="tD9QVT54IeONS9a-Fdes-30">
          <mxGeometry relative="1" as="geometry" />
        </mxCell>
        <mxCell id="tD9QVT54IeONS9a-Fdes-32" value="SI&amp;nbsp;&lt;font size=&quot;1&quot;&gt;&amp;lt;&lt;/font&gt;---&amp;nbsp; SI + 1" style="rounded=1;whiteSpace=wrap;html=1;fontSize=12;glass=0;strokeWidth=1;shadow=0;" vertex="1" parent="WIyWlLk6GJQsqaUBKTNV-1">
          <mxGeometry x="155" y="320" width="150" height="30" as="geometry" />
        </mxCell>
        <mxCell id="tD9QVT54IeONS9a-Fdes-33" value="END" style="ellipse;whiteSpace=wrap;html=1;" vertex="1" parent="WIyWlLk6GJQsqaUBKTNV-1">
          <mxGeometry x="170" y="530" width="120" height="40" as="geometry" />
        </mxCell>
      </root>
    </mxGraphModel>
  </diagram>
</mxfile>
